<svg width="65" height="68" viewBox="0 0 65 68" fill="none" xmlns="http://www.w3.org/2000/svg">
<g filter="url(#filter0_d_1_168)">
<path fill-rule="evenodd" clip-rule="evenodd" d="M25.5193 26.9124L18.9298 30.692V43.5351L23.2184 45.9849L26.9736 43.8151C27.2925 44.0251 27.7176 44.0251 28.0719 43.8484C28.6034 43.5334 28.8159 42.8684 28.4971 42.3437C28.3462 42.0939 28.1039 41.911 27.8203 41.8328C27.5367 41.7546 27.2336 41.7871 26.9736 41.9236C26.6193 42.1336 26.4067 42.5187 26.4422 42.9034L23.2184 44.7248L20.5612 43.22L26.6193 39.7555L27.6822 40.3855L29.2765 41.2953L30.3394 41.8903L41.0384 35.8013C41.3573 36.0113 41.7825 36.0113 42.1722 35.8013C42.7036 35.5212 42.8808 34.8562 42.5619 34.3315C42.411 34.0817 42.1687 33.8989 41.8851 33.8207C41.6016 33.7425 41.2984 33.775 41.0384 33.9115C40.6841 34.1215 40.507 34.5062 40.507 34.8912L32.2168 39.5805L30.3381 40.6656L27.9643 39.3008L23.5714 36.781V33.9475L30.1609 37.7267L30.8695 37.342L41.6036 31.2173V30.7976L41.4265 26.5974L37.6709 24.4639C37.6709 24.2542 37.6001 24.0792 37.5292 23.9042C37.4206 23.7139 37.2573 23.5596 37.06 23.461C36.8626 23.3623 36.6401 23.3237 36.4205 23.35C36.201 23.3763 35.9942 23.4664 35.8265 23.6087C35.6587 23.7511 35.5374 23.9395 35.478 24.1499C35.4186 24.3604 35.4237 24.5835 35.4926 24.7912C35.5616 24.9988 35.6913 25.1815 35.8654 25.3163C36.0395 25.4511 36.2501 25.5318 36.4707 25.5483C36.6912 25.5648 36.9118 25.5163 37.1044 25.409V25.3756L40.3636 27.2304L40.4699 30.1699L34.27 26.6364V22.5381L23.6065 16.4498C23.6065 16.2398 23.5356 16.0648 23.4293 15.8901C23.1459 15.3651 22.4727 15.19 21.9413 15.4701C21.6829 15.6139 21.493 15.8533 21.4133 16.1356C21.3336 16.4178 21.3706 16.7197 21.5163 16.975C21.6619 17.2302 21.9042 17.4179 22.1899 17.4966C22.4756 17.5753 22.7812 17.5387 23.0396 17.3948V17.3615L29.7 21.1757L33.2062 23.1678V30.692L30.9032 32.0217V24.4626L27.3961 22.4681L20.7357 18.6886L19.6373 18.0585L15.3521 20.5084V24.7776L15.3183 24.8109C14.8223 25.091 14.6097 25.756 14.9286 26.2807C15.0795 26.5305 15.3218 26.7134 15.6054 26.7915C15.8889 26.8697 16.1921 26.8372 16.4521 26.7007C16.5783 26.6278 16.6887 26.5309 16.7767 26.4156C16.8648 26.3002 16.9288 26.1687 16.9651 26.0288C17.0013 25.8888 17.0091 25.7431 16.9879 25.6002C16.9668 25.4572 16.9171 25.3198 16.8418 25.196C16.7377 25.0232 16.5916 24.8788 16.4166 24.7759V21.1381L18.9318 19.7046V26.5987L18.1523 27.0537L16.4166 28.0335L15.3537 28.6635V40.8419H15.32C14.824 41.1566 14.6114 41.8216 14.9303 42.3467C15.0041 42.4714 15.1022 42.5804 15.219 42.6674C15.3358 42.7544 15.469 42.8177 15.6107 42.8534C15.7524 42.8892 15.8999 42.8969 16.0446 42.8759C16.1893 42.8549 16.3284 42.8058 16.4538 42.7313C16.9849 42.4517 17.1623 41.7866 16.8435 41.2616C16.7394 41.0889 16.5932 40.9446 16.4183 40.8419V29.2572L23.0433 25.5127L25.5193 26.9124ZM19.9926 31.3217L26.0507 27.8571V30.6906L22.4741 32.7201V37.411L25.5207 39.1258L19.994 42.2753L19.9926 31.3217ZM29.8063 32.1967L27.1491 30.692V26.6324L23.0396 24.2529L19.9926 26.0027V19.4933L29.8063 25.0936V32.1967ZM24.1021 33.0364L26.6176 31.603L30.1606 33.6678L34.27 31.323V27.8571L39.9725 31.0767L30.1606 36.501L24.1021 33.0364Z" fill="white"/>
</g>
<defs>
<filter id="filter0_d_1_168" x="0.355337" y="0.915335" width="63.9987" height="66.7029" filterUnits="userSpaceOnUse" color-interpolation-filters="sRGB">
<feFlood flood-opacity="0" result="BackgroundImageFix"/>
<feColorMatrix in="SourceAlpha" type="matrix" values="0 0 0 0 0 0 0 0 0 0 0 0 0 0 0 0 0 0 127 0" result="hardAlpha"/>
<feOffset dx="3.60556" dy="3.60556"/>
<feGaussianBlur stdDeviation="9.01391"/>
<feComposite in2="hardAlpha" operator="out"/>
<feColorMatrix type="matrix" values="0 0 0 0 1 0 0 0 0 1 0 0 0 0 1 0 0 0 0.56 0"/>
<feBlend mode="normal" in2="BackgroundImageFix" result="effect1_dropShadow_1_168"/>
<feBlend mode="normal" in="SourceGraphic" in2="effect1_dropShadow_1_168" result="shape"/>
</filter>
</defs>
</svg>
