<svg width="29" height="31" viewBox="0 0 29 31" fill="none" xmlns="http://www.w3.org/2000/svg">
<g filter="url(#filter0_i_111_3)">
<mask id="path-1-inside-1_111_3" fill="white">
<path fill-rule="evenodd" clip-rule="evenodd" d="M11.5193 11.9125L4.92981 15.6921V28.5352L9.21841 30.985L12.9736 28.8152C13.2925 29.0252 13.7176 29.0252 14.0719 28.8485C14.6034 28.5335 14.8159 27.8685 14.4971 27.3438C14.3462 27.094 14.1039 26.9111 13.8203 26.8329C13.5367 26.7547 13.2336 26.7872 12.9736 26.9237C12.6193 27.1337 12.4067 27.5188 12.4422 27.9035L9.21841 29.7249L6.56121 28.2201L12.6193 24.7556L13.6822 25.3856L15.2765 26.2954L16.3394 26.8904L27.0384 20.8014C27.3573 21.0114 27.7825 21.0114 28.1722 20.8014C28.7036 20.5213 28.8808 19.8563 28.5619 19.3316C28.411 19.0818 28.1687 18.899 27.8851 18.8208C27.6016 18.7426 27.2984 18.7751 27.0384 18.9116C26.6841 19.1216 26.507 19.5063 26.507 19.8913L18.2168 24.5806L16.3381 25.6657L13.9643 24.3009L9.57141 21.7811V18.9476L16.1609 22.7268L16.8695 22.3421L27.6036 16.2174V15.7977L27.4265 11.5975L23.6709 9.46395C23.6709 9.25425 23.6001 9.07925 23.5292 8.90425C23.4206 8.71395 23.2573 8.55966 23.06 8.46106C22.8626 8.36236 22.6401 8.32376 22.4205 8.35006C22.201 8.37636 21.9942 8.46646 21.8265 8.60876C21.6587 8.75116 21.5374 8.93956 21.478 9.14996C21.4186 9.36046 21.4237 9.58356 21.4926 9.79126C21.5616 9.99886 21.6913 10.1816 21.8654 10.3164C22.0395 10.4512 22.2501 10.5319 22.4707 10.5484C22.6912 10.5649 22.9118 10.5164 23.1044 10.4091V10.3757L26.3636 12.2305L26.4699 15.17L20.27 11.6365V7.53816L9.60651 1.44986C9.60651 1.23986 9.53561 1.06486 9.42931 0.890155C9.14591 0.365155 8.47271 0.190056 7.94131 0.470156C7.68291 0.613956 7.49301 0.853355 7.41331 1.13565C7.33361 1.41785 7.37061 1.71976 7.51631 1.97506C7.66191 2.23026 7.90421 2.41795 8.18991 2.49665C8.47561 2.57535 8.78121 2.53876 9.03961 2.39486V2.36156L15.7 6.17576L19.2062 8.16786V15.6921L16.9032 17.0218V9.46266L13.3961 7.46816L6.73571 3.68866L5.63731 3.05856L1.35211 5.50846V9.77765L1.31831 9.81096C0.822313 10.0911 0.609713 10.7561 0.928613 11.2808C1.07951 11.5306 1.32181 11.7135 1.60541 11.7916C1.88891 11.8698 2.19211 11.8373 2.45211 11.7008C2.57831 11.6279 2.68871 11.531 2.77671 11.4157C2.86481 11.3003 2.92881 11.1688 2.96511 11.0289C3.00131 10.8889 3.00911 10.7432 2.98791 10.6003C2.96681 10.4573 2.91711 10.3199 2.84181 10.1961C2.73771 10.0233 2.59161 9.87886 2.41661 9.77596V6.13816L4.93181 4.70466V11.5988L4.15231 12.0538L2.41661 13.0336L1.35371 13.6636V25.842H1.32001C0.824013 26.1567 0.611413 26.8217 0.930313 27.3468C1.00411 27.4715 1.10221 27.5805 1.21901 27.6675C1.33581 27.7545 1.46901 27.8178 1.61071 27.8535C1.75241 27.8893 1.89991 27.897 2.04461 27.876C2.18931 27.855 2.32841 27.8059 2.45381 27.7314C2.98491 27.4518 3.16231 26.7867 2.84351 26.2617C2.73941 26.089 2.59321 25.9447 2.41831 25.842V14.2573L9.04331 10.5128L11.5193 11.9125ZM5.99261 16.3218L12.0507 12.8572V15.6907L8.47411 17.7202V22.4111L11.5207 24.1259L5.99401 27.2754L5.99261 16.3218ZM15.8063 17.1968L13.1491 15.6921V11.6325L9.03961 9.25295L5.99261 11.0028V4.49336L15.8063 10.0937V17.1968ZM10.1021 18.0365L12.6176 16.6031L16.1606 18.6679L20.27 16.3231V12.8572L25.9725 16.0768L16.1606 21.5011L10.1021 18.0365Z"/>
</mask>
<path fill-rule="evenodd" clip-rule="evenodd" d="M11.5193 11.9125L4.92981 15.6921V28.5352L9.21841 30.985L12.9736 28.8152C13.2925 29.0252 13.7176 29.0252 14.0719 28.8485C14.6034 28.5335 14.8159 27.8685 14.4971 27.3438C14.3462 27.094 14.1039 26.9111 13.8203 26.8329C13.5367 26.7547 13.2336 26.7872 12.9736 26.9237C12.6193 27.1337 12.4067 27.5188 12.4422 27.9035L9.21841 29.7249L6.56121 28.2201L12.6193 24.7556L13.6822 25.3856L15.2765 26.2954L16.3394 26.8904L27.0384 20.8014C27.3573 21.0114 27.7825 21.0114 28.1722 20.8014C28.7036 20.5213 28.8808 19.8563 28.5619 19.3316C28.411 19.0818 28.1687 18.899 27.8851 18.8208C27.6016 18.7426 27.2984 18.7751 27.0384 18.9116C26.6841 19.1216 26.507 19.5063 26.507 19.8913L18.2168 24.5806L16.3381 25.6657L13.9643 24.3009L9.57141 21.7811V18.9476L16.1609 22.7268L16.8695 22.3421L27.6036 16.2174V15.7977L27.4265 11.5975L23.6709 9.46395C23.6709 9.25425 23.6001 9.07925 23.5292 8.90425C23.4206 8.71395 23.2573 8.55966 23.06 8.46106C22.8626 8.36236 22.6401 8.32376 22.4205 8.35006C22.201 8.37636 21.9942 8.46646 21.8265 8.60876C21.6587 8.75116 21.5374 8.93956 21.478 9.14996C21.4186 9.36046 21.4237 9.58356 21.4926 9.79126C21.5616 9.99886 21.6913 10.1816 21.8654 10.3164C22.0395 10.4512 22.2501 10.5319 22.4707 10.5484C22.6912 10.5649 22.9118 10.5164 23.1044 10.4091V10.3757L26.3636 12.2305L26.4699 15.17L20.27 11.6365V7.53816L9.60651 1.44986C9.60651 1.23986 9.53561 1.06486 9.42931 0.890155C9.14591 0.365155 8.47271 0.190056 7.94131 0.470156C7.68291 0.613956 7.49301 0.853355 7.41331 1.13565C7.33361 1.41785 7.37061 1.71976 7.51631 1.97506C7.66191 2.23026 7.90421 2.41795 8.18991 2.49665C8.47561 2.57535 8.78121 2.53876 9.03961 2.39486V2.36156L15.7 6.17576L19.2062 8.16786V15.6921L16.9032 17.0218V9.46266L13.3961 7.46816L6.73571 3.68866L5.63731 3.05856L1.35211 5.50846V9.77765L1.31831 9.81096C0.822313 10.0911 0.609713 10.7561 0.928613 11.2808C1.07951 11.5306 1.32181 11.7135 1.60541 11.7916C1.88891 11.8698 2.19211 11.8373 2.45211 11.7008C2.57831 11.6279 2.68871 11.531 2.77671 11.4157C2.86481 11.3003 2.92881 11.1688 2.96511 11.0289C3.00131 10.8889 3.00911 10.7432 2.98791 10.6003C2.96681 10.4573 2.91711 10.3199 2.84181 10.1961C2.73771 10.0233 2.59161 9.87886 2.41661 9.77596V6.13816L4.93181 4.70466V11.5988L4.15231 12.0538L2.41661 13.0336L1.35371 13.6636V25.842H1.32001C0.824013 26.1567 0.611413 26.8217 0.930313 27.3468C1.00411 27.4715 1.10221 27.5805 1.21901 27.6675C1.33581 27.7545 1.46901 27.8178 1.61071 27.8535C1.75241 27.8893 1.89991 27.897 2.04461 27.876C2.18931 27.855 2.32841 27.8059 2.45381 27.7314C2.98491 27.4518 3.16231 26.7867 2.84351 26.2617C2.73941 26.089 2.59321 25.9447 2.41831 25.842V14.2573L9.04331 10.5128L11.5193 11.9125ZM5.99261 16.3218L12.0507 12.8572V15.6907L8.47411 17.7202V22.4111L11.5207 24.1259L5.99401 27.2754L5.99261 16.3218ZM15.8063 17.1968L13.1491 15.6921V11.6325L9.03961 9.25295L5.99261 11.0028V4.49336L15.8063 10.0937V17.1968ZM10.1021 18.0365L12.6176 16.6031L16.1606 18.6679L20.27 16.3231V12.8572L25.9725 16.0768L16.1606 21.5011L10.1021 18.0365Z" fill="black" stroke="black" stroke-width="2" mask="url(#path-1-inside-1_111_3)"/>
</g>
<defs>
<filter id="filter0_i_111_3" x="0.777588" y="0.337646" width="31.5487" height="34.2528" filterUnits="userSpaceOnUse" color-interpolation-filters="sRGB">
<feFlood flood-opacity="0" result="BackgroundImageFix"/>
<feBlend mode="normal" in="SourceGraphic" in2="BackgroundImageFix" result="shape"/>
<feColorMatrix in="SourceAlpha" type="matrix" values="0 0 0 0 0 0 0 0 0 0 0 0 0 0 0 0 0 0 127 0" result="hardAlpha"/>
<feOffset dx="3.60556" dy="3.60556"/>
<feGaussianBlur stdDeviation="9.01391"/>
<feComposite in2="hardAlpha" operator="arithmetic" k2="-1" k3="1"/>
<feColorMatrix type="matrix" values="0 0 0 0 1 0 0 0 0 1 0 0 0 0 1 0 0 0 0.56 0"/>
<feBlend mode="normal" in2="shape" result="effect1_innerShadow_111_3"/>
</filter>
</defs>
</svg>
